<?xml version="1.0" encoding="UTF-8"?>
<svg xmlns="http://www.w3.org/2000/svg" xmlns:xlink="http://www.w3.org/1999/xlink" viewBox="0 0 33 33" width="33px" height="33px">
<g id="surface59319626">
<path style=" stroke:none;fill-rule:nonzero;fill:rgb(100%,100%,100%);fill-opacity:1;" d="M 16.5 3.300781 C 9.210938 3.300781 3.300781 9.210938 3.300781 16.5 C 3.300781 23.789062 9.210938 29.699219 16.5 29.699219 C 23.789062 29.699219 29.699219 23.789062 29.699219 16.5 C 29.699219 9.210938 23.789062 3.300781 16.5 3.300781 Z M 17.601562 17.601562 L 8.792969 17.601562 C 8.191406 17.601562 7.699219 17.109375 7.699219 16.503906 L 7.699219 16.492188 C 7.699219 15.890625 8.191406 15.398438 8.792969 15.398438 L 15.398438 15.398438 L 15.398438 6.59375 C 15.398438 5.988281 15.890625 5.5 16.496094 5.5 L 16.507812 5.5 C 17.109375 5.5 17.601562 5.988281 17.601562 6.59375 Z M 17.601562 17.601562 "/>
</g>
</svg>
