<?xml version="1.0" encoding="UTF-8"?>
<svg xmlns="http://www.w3.org/2000/svg" xmlns:xlink="http://www.w3.org/1999/xlink" width="33" height="33" viewBox="0 0 33 33" version="1.1">
<g id="surface1">
<path style=" stroke:none;fill-rule:evenodd;fill:rgb(100%,100%,100%);fill-opacity:1;" d="M 32.335938 24.449219 C 32.488281 24.546875 32.582031 24.71875 32.582031 24.902344 L 32.582031 32.417969 C 32.582031 32.71875 32.34375 32.960938 32.046875 32.960938 L 24.550781 32.960938 C 24.253906 32.960938 24.015625 32.71875 24.015625 32.417969 L 24.015625 24.902344 C 24.011719 24.691406 24.132812 24.5 24.324219 24.410156 C 24.632812 25.066406 25.179688 25.574219 25.855469 25.828125 C 26.226562 25.972656 26.625 26.042969 27.023438 26.035156 C 27.429688 26.027344 27.828125 25.933594 28.199219 25.765625 L 28.308594 25.710938 C 28.40625 25.761719 28.507812 25.808594 28.609375 25.851562 C 29.390625 26.160156 30.265625 26.128906 31.027344 25.765625 C 31.601562 25.496094 32.0625 25.027344 32.328125 24.449219 Z M 20.410156 1.175781 C 20.734375 0.667969 21.394531 0.511719 21.910156 0.816406 C 22.425781 1.121094 22.609375 1.78125 22.332031 2.3125 C 21.859375 3.125 19.503906 7.402344 19.066406 7.726562 L 19.066406 16.804688 C 19.191406 18.335938 16.75 18.453125 16.75 16.804688 L 16.75 11.929688 C 16.59375 11.980469 16.425781 11.980469 16.273438 11.929688 L 16.273438 16.804688 C 16.371094 18.375 13.953125 18.363281 13.953125 16.804688 L 13.953125 7.761719 C 13.496094 7.453125 11.121094 3.121094 10.648438 2.3125 C 10.335938 1.777344 10.511719 1.089844 11.042969 0.777344 C 11.574219 0.460938 12.253906 0.640625 12.566406 1.175781 L 14.863281 5.117188 C 15.945312 5.015625 17.035156 5.015625 18.117188 5.117188 Z M 28.113281 5.945312 C 29.269531 5.945312 30.203125 6.890625 30.203125 8.054688 C 30.203125 9.222656 29.433594 10.164062 28.277344 10.164062 C 27.117188 10.164062 26.015625 9.222656 26.015625 8.054688 C 26.019531 6.886719 26.957031 5.945312 28.113281 5.945312 Z M 30.882812 13.890625 L 30.882812 23.171875 C 31.011719 24.699219 28.566406 24.816406 28.566406 23.171875 L 28.566406 18.296875 C 28.410156 18.347656 28.242188 18.347656 28.089844 18.296875 L 28.089844 23.171875 C 28.191406 24.742188 25.773438 24.722656 25.773438 23.171875 L 25.773438 13.890625 L 25.355469 13.890625 L 25.355469 17.574219 C 25.355469 18.742188 23.597656 18.742188 23.597656 17.574219 L 23.597656 13.445312 C 23.597656 12.421875 23.941406 11.695312 24.566406 11.222656 C 25.640625 10.410156 30.960938 10.410156 32.03125 11.222656 C 32.65625 11.695312 33.003906 12.414062 33 13.445312 L 33 17.574219 C 33 18.742188 31.242188 18.742188 31.242188 17.574219 L 31.242188 13.890625 Z M 4.511719 3.832031 C 5.667969 3.832031 6.605469 4.777344 6.605469 5.941406 C 6.605469 7.109375 5.835938 8.054688 4.679688 8.054688 C 3.519531 8.054688 2.417969 7.121094 2.417969 5.953125 C 2.414062 5.390625 2.632812 4.851562 3.027344 4.453125 C 3.421875 4.054688 3.953125 3.832031 4.511719 3.832031 Z M 7.269531 11.789062 L 7.269531 21.070312 C 7.394531 22.597656 4.953125 22.714844 4.953125 21.070312 L 4.953125 16.195312 C 4.800781 16.246094 4.632812 16.246094 4.476562 16.195312 L 4.476562 21.070312 C 4.578125 22.640625 2.160156 22.625 2.160156 21.070312 L 2.160156 11.789062 L 1.757812 11.789062 L 1.757812 15.476562 C 1.757812 16.640625 0 16.640625 0 15.476562 L 0 11.34375 C 0 10.332031 0.339844 9.59375 0.96875 9.121094 C 2.039062 8.308594 7.359375 8.308594 8.433594 9.121094 C 9.054688 9.59375 9.398438 10.316406 9.398438 11.34375 L 9.398438 15.476562 C 9.398438 16.644531 7.640625 16.644531 7.640625 15.476562 L 7.640625 11.789062 Z M 16.3125 0.0429688 C 16.910156 0.0429688 17.476562 0.300781 17.875 0.75 C 18.5 1.484375 18.582031 2.542969 18.078125 3.371094 C 17.738281 3.9375 17.125 4.277344 16.46875 4.261719 C 15.925781 4.261719 15.398438 4.070312 14.980469 3.722656 C 14.511719 3.351562 14.226562 2.789062 14.207031 2.191406 C 14.191406 1.589844 14.4375 1.011719 14.878906 0.609375 C 15.269531 0.246094 15.78125 0.0429688 16.3125 0.0429688 Z M 28.277344 31.625 C 27.960938 31.628906 27.652344 31.566406 27.363281 31.445312 C 27.113281 31.339844 26.898438 31.167969 26.738281 30.949219 C 26.582031 30.738281 26.503906 30.484375 26.507812 30.222656 L 27.699219 30.222656 C 27.699219 30.304688 27.726562 30.386719 27.777344 30.449219 C 27.832031 30.519531 27.902344 30.574219 27.984375 30.605469 C 28.078125 30.644531 28.183594 30.664062 28.285156 30.660156 C 28.386719 30.664062 28.484375 30.644531 28.578125 30.601562 C 28.65625 30.566406 28.722656 30.511719 28.773438 30.441406 C 28.820312 30.367188 28.84375 30.285156 28.839844 30.199219 C 28.84375 30.113281 28.8125 30.03125 28.757812 29.964844 C 28.699219 29.886719 28.621094 29.832031 28.53125 29.800781 C 28.421875 29.761719 28.308594 29.742188 28.191406 29.742188 L 27.75 29.742188 L 27.75 28.933594 L 28.199219 28.933594 C 28.304688 28.933594 28.410156 28.914062 28.507812 28.875 C 28.59375 28.839844 28.664062 28.785156 28.71875 28.710938 C 28.769531 28.644531 28.796875 28.5625 28.792969 28.476562 C 28.796875 28.398438 28.777344 28.316406 28.734375 28.25 C 28.6875 28.183594 28.628906 28.128906 28.554688 28.09375 C 28.472656 28.054688 28.378906 28.039062 28.285156 28.039062 C 28.1875 28.039062 28.089844 28.058594 27.996094 28.097656 C 27.917969 28.132812 27.847656 28.1875 27.796875 28.257812 C 27.75 28.328125 27.722656 28.410156 27.722656 28.492188 L 26.585938 28.492188 C 26.582031 28.238281 26.660156 27.988281 26.808594 27.78125 C 26.960938 27.566406 27.167969 27.402344 27.40625 27.296875 C 27.960938 27.070312 28.582031 27.070312 29.136719 27.296875 C 29.367188 27.394531 29.566406 27.550781 29.71875 27.75 C 29.855469 27.941406 29.929688 28.175781 29.925781 28.410156 C 29.933594 28.640625 29.84375 28.863281 29.675781 29.015625 C 29.496094 29.175781 29.269531 29.269531 29.03125 29.285156 L 29.03125 29.320312 C 29.328125 29.332031 29.613281 29.445312 29.835938 29.648438 C 30.015625 29.820312 30.113281 30.066406 30.105469 30.316406 C 30.109375 30.566406 30.027344 30.808594 29.875 31.003906 C 29.707031 31.210938 29.484375 31.375 29.234375 31.46875 C 28.933594 31.589844 28.613281 31.648438 28.289062 31.640625 Z M 3.070312 29.917969 L 3.070312 29.058594 L 4.695312 27.707031 C 4.792969 27.625 4.878906 27.539062 4.964844 27.449219 C 5.039062 27.378906 5.097656 27.296875 5.144531 27.207031 C 5.1875 27.121094 5.207031 27.03125 5.207031 26.9375 C 5.210938 26.835938 5.1875 26.734375 5.136719 26.648438 C 5.089844 26.566406 5.019531 26.5 4.9375 26.460938 C 4.753906 26.375 4.542969 26.375 4.359375 26.460938 C 4.277344 26.503906 4.210938 26.574219 4.167969 26.65625 C 4.121094 26.753906 4.097656 26.859375 4.101562 26.96875 L 2.984375 26.96875 C 2.972656 26.683594 3.046875 26.402344 3.191406 26.15625 C 3.332031 25.929688 3.53125 25.753906 3.773438 25.640625 C 4.050781 25.515625 4.351562 25.453125 4.65625 25.460938 C 4.96875 25.453125 5.277344 25.511719 5.566406 25.632812 C 5.804688 25.730469 6.011719 25.894531 6.160156 26.105469 C 6.300781 26.316406 6.375 26.5625 6.371094 26.816406 C 6.371094 26.992188 6.332031 27.160156 6.265625 27.320312 C 6.167969 27.519531 6.042969 27.703125 5.890625 27.863281 C 5.652344 28.121094 5.394531 28.359375 5.121094 28.582031 L 4.714844 28.925781 L 4.714844 28.949219 L 6.414062 28.949219 L 6.414062 29.902344 Z M 17.570312 22.195312 L 17.570312 26.59375 L 16.398438 26.59375 L 16.398438 23.292969 L 16.382812 23.292969 L 15.417969 23.867188 L 15.417969 22.859375 L 16.492188 22.195312 Z M 8.914062 21.769531 C 8.960938 21.851562 8.988281 21.945312 8.984375 22.042969 L 8.984375 32.425781 C 8.984375 32.722656 8.746094 32.964844 8.449219 32.964844 L 0.949219 32.964844 C 0.652344 32.964844 0.414062 32.722656 0.414062 32.425781 L 0.414062 22.035156 C 0.417969 21.914062 0.460938 21.796875 0.535156 21.703125 C 0.722656 22.636719 1.378906 23.40625 2.265625 23.734375 C 2.636719 23.878906 3.035156 23.949219 3.433594 23.9375 C 3.84375 23.933594 4.246094 23.839844 4.617188 23.667969 L 4.730469 23.613281 C 4.824219 23.664062 4.925781 23.710938 5.027344 23.753906 C 5.808594 24.0625 6.683594 24.03125 7.445312 23.671875 C 8.210938 23.316406 8.761719 22.609375 8.925781 21.777344 Z M 20.734375 17.4375 C 20.769531 17.511719 20.789062 17.59375 20.789062 17.679688 L 20.789062 32.417969 C 20.789062 32.714844 20.546875 32.957031 20.25 32.957031 L 12.75 32.957031 C 12.453125 32.957031 12.214844 32.714844 12.214844 32.417969 L 12.214844 17.683594 C 12.214844 17.570312 12.25 17.460938 12.316406 17.371094 C 12.480469 18.335938 13.148438 19.136719 14.058594 19.472656 C 14.820312 19.769531 15.667969 19.746094 16.410156 19.402344 L 16.519531 19.34375 C 16.617188 19.394531 16.71875 19.445312 16.820312 19.484375 C 17.601562 19.792969 18.476562 19.761719 19.238281 19.402344 C 20.027344 19.039062 20.585938 18.304688 20.730469 17.441406 Z M 20.734375 17.4375 "/>
</g>
</svg>
