<?xml version="1.0" encoding="UTF-8" standalone="no" ?>
<!DOCTYPE svg PUBLIC "-//W3C//DTD SVG 1.1//EN" "http://www.w3.org/Graphics/SVG/1.1/DTD/svg11.dtd">
<svg xmlns="http://www.w3.org/2000/svg" xmlns:xlink="http://www.w3.org/1999/xlink" version="1.1" width="33" height="33" viewBox="0 0 33 33" xml:space="preserve">
<desc>Created with Fabric.js 4.6.0</desc>
<defs>
</defs>
<g transform="matrix(1 0 0 1 15.13 16.5)" id="ht4m1NoaDVYiXPmEIWsM9"  >
<path style="stroke: none; stroke-width: 1; stroke-dasharray: none; stroke-linecap: butt; stroke-dashoffset: 0; stroke-linejoin: miter; stroke-miterlimit: 4; fill: rgb(255,255,255); fill-rule: nonzero; opacity: 1;" vector-effect="non-scaling-stroke"  transform=" translate(-15.13, -16.5)" d="M 6.875 15.125 L 17.875 15.125 L 17.875 17.875 L 6.875 17.875 L 6.875 22 L 0 16.5 L 6.875 11 Z M 5.5 24.75 L 9.222656 24.75 C 13.644531 28.648438 20.355469 28.371094 24.4375 24.113281 C 28.519531 19.859375 28.519531 13.140625 24.4375 8.886719 C 20.355469 4.628906 13.644531 4.351562 9.222656 8.25 L 5.5 8.25 C 8.09375 4.785156 12.171875 2.746094 16.5 2.75 C 24.09375 2.75 30.25 8.90625 30.25 16.5 C 30.25 24.09375 24.09375 30.25 16.5 30.25 C 12.171875 30.253906 8.09375 28.214844 5.5 24.75 Z M 5.5 24.75" stroke-linecap="round" />
</g>
</svg>