<?xml version="1.0" encoding="UTF-8"?>
<svg xmlns="http://www.w3.org/2000/svg" xmlns:xlink="http://www.w3.org/1999/xlink" viewBox="0 0 33 33" width="33px" height="33px">
<g id="surface59335127">
<path style=" stroke:none;fill-rule:nonzero;fill:rgb(100%,100%,100%);fill-opacity:1;" d="M 16.5 3.300781 C 13.257812 3.300781 10.261719 4.5 7.980469 6.417969 C 7.675781 6.671875 7.53125 7.066406 7.597656 7.457031 C 7.667969 7.847656 7.9375 8.171875 8.3125 8.304688 C 8.683594 8.4375 9.097656 8.359375 9.398438 8.101562 C 11.296875 6.503906 13.800781 5.5 16.5 5.5 C 22.25 5.5 26.902344 9.804688 27.445312 15.398438 L 24.199219 15.398438 L 28.601562 22 L 33 15.398438 L 29.644531 15.398438 C 29.085938 8.617188 23.429688 3.300781 16.5 3.300781 Z M 4.730469 9.898438 L 0.332031 16.5 L 3.300781 16.5 C 3.300781 23.800781 9.199219 29.699219 16.5 29.699219 C 19.742188 29.699219 22.738281 28.5 25.019531 26.582031 C 25.324219 26.328125 25.46875 25.933594 25.402344 25.542969 C 25.332031 25.152344 25.0625 24.828125 24.6875 24.695312 C 24.316406 24.5625 23.902344 24.640625 23.601562 24.898438 C 21.703125 26.496094 19.199219 27.5 16.5 27.5 C 10.378906 27.5 5.5 22.621094 5.5 16.5 L 9.132812 16.5 Z M 4.730469 9.898438 "/>
</g>
</svg>
