<?xml version="1.0" encoding="UTF-8"?>
<svg xmlns="http://www.w3.org/2000/svg" xmlns:xlink="http://www.w3.org/1999/xlink" viewBox="0 0 33 33" width="33px" height="33px">
<g id="surface60299312">
<path style=" stroke:none;fill-rule:nonzero;fill:rgb(100%,100%,100%);fill-opacity:1;" d="M 16.5 1.320312 C 8.125 1.320312 1.320312 8.125 1.320312 16.5 C 1.320312 24.875 8.125 31.679688 16.5 31.679688 C 24.875 31.679688 31.679688 24.875 31.679688 16.5 C 31.679688 8.125 24.875 1.320312 16.5 1.320312 Z M 16.5 2.640625 C 24.164062 2.640625 30.359375 8.835938 30.359375 16.5 C 30.359375 24.164062 24.164062 30.359375 16.5 30.359375 C 8.835938 30.359375 2.640625 24.164062 2.640625 16.5 C 2.640625 8.835938 8.835938 2.640625 16.5 2.640625 Z M 16.5 7.261719 C 15.40625 7.261719 14.519531 8.144531 14.519531 9.238281 C 14.519531 10.332031 15.40625 11.21875 16.5 11.21875 C 17.59375 11.21875 18.480469 10.332031 18.480469 9.238281 C 18.480469 8.144531 17.59375 7.261719 16.5 7.261719 Z M 13.859375 13.859375 L 13.859375 15.179688 L 15.179688 15.179688 L 15.179688 23.761719 L 13.859375 23.761719 L 13.859375 25.078125 L 19.140625 25.078125 L 19.140625 23.761719 L 17.820312 23.761719 L 17.820312 13.859375 Z M 13.859375 13.859375 "/>
</g>
</svg>
