<?xml version="1.0" encoding="UTF-8"?>
<svg xmlns="http://www.w3.org/2000/svg" xmlns:xlink="http://www.w3.org/1999/xlink" viewBox="0 0 33 33" width="33px" height="33px">
<g id="surface60290127">
<path style=" stroke:none;fill-rule:nonzero;fill:rgb(100%,100%,100%);fill-opacity:1;" d="M 13.597656 3.09375 L 13.4375 3.933594 L 12.824219 6.992188 C 11.84375 7.378906 10.957031 7.921875 10.152344 8.574219 L 7.152344 7.542969 L 6.347656 7.285156 L 5.929688 8.023438 L 3.867188 11.570312 L 3.449219 12.308594 L 4.0625 12.859375 L 6.382812 14.886719 C 6.296875 15.417969 6.1875 15.945312 6.1875 16.5 C 6.1875 17.054688 6.296875 17.582031 6.382812 18.113281 L 4.0625 20.140625 L 3.449219 20.691406 L 3.867188 21.429688 L 5.929688 24.976562 L 6.347656 25.714844 L 7.152344 25.457031 L 10.152344 24.425781 C 10.957031 25.078125 11.84375 25.621094 12.824219 26.007812 L 13.4375 29.066406 L 13.597656 29.90625 L 19.402344 29.90625 L 19.5625 29.066406 L 20.175781 26.007812 C 21.15625 25.621094 22.042969 25.078125 22.847656 24.425781 L 25.847656 25.457031 L 26.652344 25.714844 L 27.070312 24.976562 L 29.132812 21.429688 L 29.550781 20.691406 L 28.9375 20.140625 L 26.617188 18.113281 C 26.703125 17.582031 26.8125 17.054688 26.8125 16.5 C 26.8125 15.945312 26.703125 15.417969 26.617188 14.886719 L 28.9375 12.859375 L 29.550781 12.308594 L 29.132812 11.570312 L 27.070312 8.023438 L 26.652344 7.285156 L 25.847656 7.542969 L 22.847656 8.574219 C 22.042969 7.921875 21.15625 7.378906 20.175781 6.992188 L 19.5625 3.933594 L 19.402344 3.09375 Z M 15.277344 5.15625 L 17.726562 5.15625 L 18.242188 7.832031 L 18.371094 8.445312 L 18.949219 8.636719 C 20.121094 9.003906 21.183594 9.625 22.074219 10.441406 L 22.527344 10.859375 L 23.105469 10.667969 L 25.71875 9.765625 L 26.941406 11.859375 L 24.878906 13.695312 L 24.394531 14.082031 L 24.558594 14.695312 C 24.691406 15.285156 24.75 15.882812 24.75 16.5 C 24.75 17.117188 24.691406 17.714844 24.558594 18.304688 L 24.429688 18.917969 L 24.878906 19.304688 L 26.941406 21.140625 L 25.71875 23.234375 L 23.105469 22.332031 L 22.527344 22.140625 L 22.074219 22.558594 C 21.183594 23.375 20.121094 23.996094 18.949219 24.363281 L 18.371094 24.558594 L 18.242188 25.167969 L 17.726562 27.84375 L 15.277344 27.84375 L 14.761719 25.167969 L 14.632812 24.558594 L 14.050781 24.363281 C 12.878906 23.996094 11.816406 23.375 10.925781 22.558594 L 10.472656 22.140625 L 9.894531 22.332031 L 7.285156 23.234375 L 6.058594 21.140625 L 8.121094 19.304688 L 8.605469 18.917969 L 8.445312 18.304688 C 8.308594 17.714844 8.25 17.117188 8.25 16.5 C 8.25 15.882812 8.308594 15.285156 8.445312 14.695312 L 8.605469 14.082031 L 8.121094 13.695312 L 6.058594 11.859375 L 7.285156 9.765625 L 9.894531 10.667969 L 10.472656 10.859375 L 10.925781 10.441406 C 11.816406 9.625 12.878906 9.003906 14.050781 8.636719 L 14.632812 8.445312 L 14.761719 7.832031 Z M 16.5 11.34375 C 13.664062 11.34375 11.34375 13.664062 11.34375 16.5 C 11.34375 19.335938 13.664062 21.65625 16.5 21.65625 C 19.335938 21.65625 21.65625 19.335938 21.65625 16.5 C 21.65625 13.664062 19.335938 11.34375 16.5 11.34375 Z M 16.5 13.40625 C 18.21875 13.40625 19.59375 14.78125 19.59375 16.5 C 19.59375 18.21875 18.21875 19.59375 16.5 19.59375 C 14.78125 19.59375 13.40625 18.21875 13.40625 16.5 C 13.40625 14.78125 14.78125 13.40625 16.5 13.40625 Z M 16.5 13.40625 "/>
</g>
</svg>
